<svg xmlns="http://www.w3.org/2000/svg" viewBox="0 0 100 100"><defs><style>.cls-1{fill:#197d7d;}.cls-2{fill:#af1932;}</style></defs><g id="Carabiner"><path class="cls-1" d="M87.06,62.44A10.37,10.37,0,0,1,83.74,60a13.22,13.22,0,0,1,3.74-4.4c2.13-1.79,4.36-3.46,6.53-5.2a12.79,12.79,0,0,0,3.37-3.43c2.39,0,3.22,1.37,2.18,3.56a21,21,0,0,1-4.74,5.93A42.82,42.82,0,0,1,87.06,62.44Z"/><path class="cls-1" d="M80.8,58.12c2.84,3.78,6.46,6.28,11.26,6.52-.65,3.36-3,5.24-6.21,4.86a10.43,10.43,0,0,1-7.53-4.62C76.25,61.92,77.25,59.19,80.8,58.12Z"/><path class="cls-1" d="M76.57,63.38c2.22,5.18,6.43,7.38,12.71,6.72a4.07,4.07,0,0,1-4.53,3.57,10.84,10.84,0,0,1-8.71-5A3.76,3.76,0,0,1,76.57,63.38Z"/><path class="cls-1" d="M86.6,44.56c.05,3.12,1.63,5.55,3,8.1L86.76,55c-1.2-2.21-2.88-4.11-3.28-6.7C83.15,46.17,84.06,45.06,86.6,44.56Z"/><path class="cls-1" d="M83,59.43a10.74,10.74,0,0,1-2.72-7.51c.1-1.53,1.32-1.64,2.61-1.76l3.13,5.39A18.5,18.5,0,0,0,83,59.43Z"/><path class="cls-1" d="M88.23,62.83a54.49,54.49,0,0,0,7.92-6.44c.7,1.7.06,3.87-1.56,5.52C92.66,63.87,90.93,64.14,88.23,62.83Z"/><path class="cls-1" d="M83.12,74.24c-5.53,2.67-10.64,3.75-16.3,2.81,1.82-1.81,2.18-2.47,2.26-6.55a10.82,10.82,0,0,0,6.57-.82C78.14,72.69,80.32,73.76,83.12,74.24Z"/><path class="cls-1" d="M68.61,85.63s-5,3.43-20.15,3.72c0,0-37.52,1.25-37.52-40.68,0,0-1.52-37.5,38-37.5S88,47.06,88,47.06s1.4,3.39,2.75,3.66,5.71-4.59,5.71-4.59S97.52,0,48.88,0,0,48.45,0,48.45C0,100.12,48.42,100,48.42,100c19.25,0,25.51-6.08,25.51-6.08C76.61,92.69,73.63,83.38,68.61,85.63Z"/><path class="cls-2" d="M31.18,46.55s-.79-1.42-.6-6.37c-.22-5.76,5-14.52,15.75-13.7,5.4.81,8.44,3.28,9.55,7.13A267.75,267.75,0,0,0,61.56,69.8c.84,6.53-10.92,7.57-13.89,3.94-1.61-2.14-3.22-4.27-3.38-4.08-1.13-.74-4.76-1.42-4.46.68a10,10,0,0,0,2.61,6c7.62,10.17,27.07,3.85,25.35-6.3-2.34-19.72-4.2-28.3-5.65-38,0,0-1.94-13.79-18.88-10.6C19.89,25,24.2,43,25.74,47.68c.58,2,1.28,2.45,1.28,2.45C30.78,52.12,32.63,50.61,31.18,46.55Z"/><path class="cls-1" d="M31.41,46.11l13.2,24.73a1.92,1.92,0,0,1-1.1,2.62c-1.94.91-2.29.35-2.29.35L26.28,49.43C25.67,48.41,30.8,45.09,31.41,46.11Z"/><path class="cls-2" d="M36.31,52.66,40.58,60c.35.8.43,2,.71,3a20.41,20.41,0,0,1-5.15,3.24A5,5,0,0,1,34,64.67l-4.46-7.62C29.3,56.61,36.05,52.22,36.31,52.66Z"/></g></svg>